<?xml version="1.0" encoding="UTF-8" standalone="no"?>
<!-- Generator: Adobe Illustrator 15.0.2, SVG Export Plug-In . SVG Version: 6.00 Build 0)  -->

<svg
   xmlns:dc="http://purl.org/dc/elements/1.1/"
   xmlns:cc="http://creativecommons.org/ns#"
   xmlns:rdf="http://www.w3.org/1999/02/22-rdf-syntax-ns#"
   xmlns:svg="http://www.w3.org/2000/svg"
   xmlns="http://www.w3.org/2000/svg"
   xmlns:sodipodi="http://sodipodi.sourceforge.net/DTD/sodipodi-0.dtd"
   xmlns:inkscape="http://www.inkscape.org/namespaces/inkscape"
   version="1.1"
   x="0px"
   y="0px"
   width="70"
   height="44"
   viewBox="0 0 70 43.999997"
   enable-background="new 0 0 283.46 283.459"
   xml:space="preserve"
   id="svg2"
   inkscape:version="0.48.4 r9939"
   sodipodi:docname="logo.svg"><metadata
     id="metadata66"><rdf:RDF><cc:Work
         rdf:about=""><dc:format>image/svg+xml</dc:format><dc:type
           rdf:resource="http://purl.org/dc/dcmitype/StillImage" /></cc:Work></rdf:RDF></metadata><defs
     id="defs64" /><sodipodi:namedview
     pagecolor="#ffffff"
     bordercolor="#666666"
     borderopacity="1"
     objecttolerance="10"
     gridtolerance="10"
     guidetolerance="10"
     inkscape:pageopacity="0"
     inkscape:pageshadow="2"
     inkscape:window-width="1310"
     inkscape:window-height="744"
     id="namedview62"
     showgrid="false"
     inkscape:zoom="3.3302874"
     inkscape:cx="70.133884"
     inkscape:cy="-19.815965"
     inkscape:window-x="50"
     inkscape:window-y="24"
     inkscape:window-maximized="1"
     inkscape:current-layer="svg2" /><g
     id="g3082"
     transform="matrix(0.54267041,0,0,0.54267041,-1.0748303,-0.4856658)"><g
       transform="translate(-77.669157,-97.958042)"
       id="Layer_1"><g
         id="g5"><path
           style="fill:#d77e34"
           inkscape:connector-curvature="0"
           id="path7"
           d="m 156.878,118.567 c 0,2.58 -1.479,4.059 -4.06,4.059 -2.555,0 -4.021,-1.479 -4.021,-4.059 v -17.82 h -5.988 v 17.744 c 0,2.805 0.992,5.365 2.802,7.215 1.843,1.801 4.401,2.795 7.207,2.795 2.83,0 5.402,-0.994 7.253,-2.803 1.802,-1.842 2.794,-4.402 2.794,-7.207 v -17.744 h -5.987 v 17.82 z" /><path
           style="fill:#d77e34"
           inkscape:connector-curvature="0"
           id="path9"
           d="m 174.329,120.386 h 2.682 c 5.384,0 9.933,-4.652 9.933,-10.16 0,-5.676 -4.529,-10.123 -10.312,-10.123 -5.762,0 -10.274,4.447 -10.274,10.123 v 17.82 h 5.988 v -7.66 -5.57 -4.477 c 0,-2.488 1.923,-4.514 4.286,-4.514 2.384,0 4.324,2.025 4.324,4.514 0,2.469 -1.94,4.477 -4.324,4.477 h -2.303 v 5.57 z" /></g><g
         id="g11"><path
           style="fill:#127683"
           inkscape:connector-curvature="0"
           id="path13"
           d="m 152.818,131.37 c -2.821,0 -5.382,1.006 -7.211,2.836 -1.805,1.805 -2.798,4.352 -2.798,7.172 v 17.935 h 5.988 v -18.048 c 0,-2.518 1.503,-4.02 4.021,-4.02 2.58,0 4.06,1.465 4.06,4.02 v 18.048 h 5.987 v -17.935 c 0,-2.82 -0.993,-5.367 -2.798,-7.172 -1.829,-1.83 -4.403,-2.836 -7.249,-2.836 z" /><path
           style="fill:#127683"
           inkscape:connector-curvature="0"
           id="path15"
           d="m 180.426,138.61 c 0,2.555 -1.466,4.021 -4.021,4.021 -2.555,0 -4.021,-1.467 -4.021,-4.021 v -6.596 h -5.987 v 6.785 c 0,2.904 0.923,5.134 2.746,6.638 -1.823,1.504 -2.746,3.732 -2.746,6.635 v 7.24 h 5.987 V 152.3 c 0,-2.557 1.466,-4.021 4.021,-4.021 2.555,0 4.021,1.465 4.021,4.021 v 7.012 h 5.987 v -7.24 c 0,-2.895 -0.913,-5.123 -2.717,-6.635 1.804,-1.512 2.717,-3.741 2.717,-6.638 v -6.785 h -5.987 v 6.596 z" /></g><path
         style="fill:#127683"
         inkscape:connector-curvature="0"
         id="path17"
         d="M 130.688,159.291 H 87.774 c -4.323,0 -7.84,-3.517 -7.84,-7.84 v -42.915 c 0,-4.322 3.517,-7.838 7.84,-7.838 h 42.914 c 4.322,0 7.838,3.516 7.838,7.838 v 42.915 c 0,4.323 -3.515,7.84 -7.838,7.84 z M 87.774,102.698 c -3.22,0 -5.84,2.619 -5.84,5.838 v 42.915 c 0,3.22 2.62,5.84 5.84,5.84 h 42.914 c 3.219,0 5.838,-2.62 5.838,-5.84 v -42.915 c 0,-3.219 -2.619,-5.838 -5.838,-5.838 H 87.774 z" /><g
         id="g19"><path
           style="fill:#127683"
           inkscape:connector-curvature="0"
           id="path21"
           d="m 90.991,146.218 17.12,-17.118 c 1.364,-1.365 1.364,-3.58 0,-4.947 l -17.12,-17.117 c -0.688,-0.691 -1.596,-1.03 -2.497,-1.023 -0.016,0 -0.032,-0.004 -0.046,-0.004 -1.911,0 -3.458,1.55 -3.458,3.458 0,0.025 0.004,0.044 0.004,0.067 H 84.99 v 34.326 l 0,0 c 0.055,0.888 0.453,1.776 1.054,2.358 l 0,0 c 1.365,1.368 3.58,1.368 4.947,0 z" /></g><g
         id="g23"><path
           style="fill:#d77e34"
           inkscape:connector-curvature="0"
           id="path25"
           d="m 132.326,148.306 -17.119,-17.121 c -1.364,-1.364 -3.58,-1.364 -4.946,0 l -17.117,17.121 c -0.691,0.689 -1.03,1.596 -1.024,2.498 0,0.014 -0.004,0.031 -0.004,0.045 0,1.911 1.55,3.458 3.459,3.458 0.024,0 0.045,-0.004 0.067,-0.004 v 0.004 h 34.325 l 0,0 c 0.889,-0.055 1.777,-0.452 2.359,-1.054 l 0,0 c 1.367,-1.365 1.367,-3.58 0,-4.947 z" /></g><polygon
         style="fill:#127683"
         id="polygon27"
         points="201.468,137.662 208.521,137.662 208.521,132.015 188.427,132.015 188.427,137.662 195.479,137.662 195.479,159.312 201.468,159.312 " /><g
         id="g29"><path
           style="fill:#127683"
           inkscape:connector-curvature="0"
           id="path31"
           d="m 81.409,165.654 v 7.307 c 0,1.509 0.747,2.605 2.177,2.605 1.429,0 2.191,-1.096 2.191,-2.605 v -7.307 h 1.493 v 7.466 c 0,2.16 -1.604,3.844 -3.685,3.844 -2.081,0 -3.67,-1.684 -3.67,-3.844 v -7.466 h 1.494 z" /><path
           style="fill:#127683"
           inkscape:connector-curvature="0"
           id="path33"
           d="m 88.731,176.773 v -4.448 c 0,-2.001 1.397,-3.335 3.256,-3.335 1.859,0 3.257,1.334 3.257,3.335 v 4.448 h -1.398 v -4.448 c 0,-1.175 -0.857,-2.001 -1.858,-2.001 -1,0 -1.858,0.826 -1.858,2.001 v 4.448 h -1.399 z" /><path
           style="fill:#127683"
           inkscape:connector-curvature="0"
           id="path35"
           d="m 98.166,166.607 c 0.54,0 0.842,0.413 0.842,0.842 0,0.429 -0.302,0.842 -0.842,0.842 -0.54,0 -0.842,-0.413 -0.842,-0.842 0,-0.429 0.302,-0.842 0.842,-0.842 z m -0.699,10.166 v -7.625 h 1.398 v 7.625 h -1.398 z" /><path
           style="fill:#127683"
           inkscape:connector-curvature="0"
           id="path37"
           d="m 101.2,176.773 v -8.339 c 0,-1.731 1.128,-2.78 2.7,-2.78 h 1.176 v 1.334 h -0.985 c -0.921,0 -1.493,0.445 -1.493,1.414 v 0.747 h 2.287 v 1.334 h -2.287 v 6.29 H 101.2 z m 5.433,-10.166 c 0.54,0 0.842,0.413 0.842,0.842 0,0.429 -0.302,0.842 -0.842,0.842 -0.54,0 -0.842,-0.413 -0.842,-0.842 0,-0.429 0.302,-0.842 0.842,-0.842 z m -0.699,10.166 v -7.625 h 1.397 v 7.625 h -1.397 z" /><path
           style="fill:#127683"
           inkscape:connector-curvature="0"
           id="path39"
           d="m 111.286,174.263 -0.572,-1.112 3.765,-2.097 c -0.477,-0.477 -0.874,-0.731 -1.731,-0.731 -1.445,0 -2.494,1.08 -2.494,2.637 0,1.557 1.049,2.637 2.494,2.637 1.652,0 2.271,-0.985 2.558,-2.383 l 1.414,0.175 c -0.159,2.017 -1.779,3.542 -3.972,3.542 -2.112,0 -3.955,-1.62 -3.955,-3.971 0,-2.351 1.843,-3.971 3.955,-3.971 1.779,0 2.971,0.937 3.686,2.414 l -5.148,2.86 z" /><path
           style="fill:#127683"
           inkscape:connector-curvature="0"
           id="path41"
           d="m 125.343,165.654 v 7.084 c 0,2.51 -1.604,4.193 -3.844,4.193 -2.479,0 -3.939,-1.906 -3.939,-4.162 0,-2.128 1.716,-3.78 3.669,-3.78 0.763,0 1.493,0.159 2.16,0.54 v 1.461 c -0.508,-0.35 -1.286,-0.667 -1.922,-0.667 -1.509,0 -2.51,1.048 -2.51,2.621 0,1.557 1.049,2.653 2.542,2.653 1.334,0 2.446,-1.017 2.446,-3.113 v -6.831 h 1.398 z" /><path
           style="fill:#127683"
           inkscape:connector-curvature="0"
           id="path43"
           d="m 126.613,176.773 v -7.434 c 0,-2.398 1.651,-3.875 3.558,-3.875 2.256,0 3.669,1.684 3.669,3.574 0,1.954 -1.365,3.542 -3.129,3.542 h -2.018 v -1.398 h 1.589 c 1.176,0 2.065,-0.81 2.065,-2.145 0,-1.35 -0.938,-2.176 -2.161,-2.176 -1.191,0 -2.08,0.874 -2.08,2.287 v 7.625 h -1.493 z" /><path
           style="fill:#127683"
           inkscape:connector-curvature="0"
           id="path45"
           d="m 138.335,168.99 c 2.112,0 3.955,1.62 3.955,3.971 0,2.351 -1.843,3.971 -3.955,3.971 -2.112,0 -3.955,-1.62 -3.955,-3.971 0,-2.351 1.843,-3.971 3.955,-3.971 z m 0,6.608 c 1.445,0 2.494,-1.08 2.494,-2.637 0,-1.557 -1.049,-2.637 -2.494,-2.637 -1.445,0 -2.494,1.08 -2.494,2.637 0,1.557 1.049,2.637 2.494,2.637 z" /><path
           style="fill:#127683"
           inkscape:connector-curvature="0"
           id="path47"
           d="m 143.194,175.438 h 3.908 c 0.651,0 0.905,-0.254 0.905,-0.73 0,-1.398 -4.813,-0.858 -4.813,-3.495 0,-1.35 0.938,-2.065 2.605,-2.065 h 3.288 v 1.334 h -3.526 c -0.683,0 -0.89,0.19 -0.905,0.667 -0.016,1.318 4.812,0.762 4.812,3.495 0,1.445 -1.017,2.128 -2.366,2.128 h -3.908 v -1.334 z" /><path
           style="fill:#127683"
           inkscape:connector-curvature="0"
           id="path49"
           d="m 154.869,170.483 h -2.732 v 4.002 c 0,0.715 0.334,0.953 1.049,0.953 h 1.684 v 1.334 h -1.875 c -1.43,0 -2.255,-0.953 -2.255,-2.462 v -7.069 h 1.397 v 1.906 h 2.732 v 1.336 z" /><path
           style="fill:#127683"
           inkscape:connector-curvature="0"
           id="path51"
           d="m 169.274,168.545 c -1.223,-1.017 -2.033,-1.684 -3.59,-1.684 -2.462,0 -4.257,1.985 -4.257,4.352 0,2.367 1.795,4.353 4.257,4.353 2.113,0 3.972,-1.382 4.083,-3.654 h -3.876 v -1.397 h 5.433 v 0.953 c 0,3.605 -2.986,5.496 -5.64,5.496 -3.145,0 -5.813,-2.542 -5.813,-5.75 0,-3.208 2.669,-5.75 5.813,-5.75 1.858,0 3.113,0.524 4.591,2.001 l -1.001,1.08 z" /><path
           style="fill:#127683"
           inkscape:connector-curvature="0"
           id="path53"
           d="m 172.562,169.148 h 1.334 v 0.874 h 0.032 c 0.476,-0.747 1.127,-1.032 2.064,-1.032 h 0.317 v 1.334 h -0.206 c -1.351,0 -2.145,0.826 -2.145,2.891 v 3.558 h -1.397 v -7.625 z" /><path
           style="fill:#127683"
           inkscape:connector-curvature="0"
           id="path55"
           d="m 180.694,168.99 c 2.112,0 3.955,1.62 3.955,3.971 0,2.351 -1.843,3.971 -3.955,3.971 -2.112,0 -3.955,-1.62 -3.955,-3.971 0,-2.351 1.843,-3.971 3.955,-3.971 z m 0,6.608 c 1.445,0 2.494,-1.08 2.494,-2.637 0,-1.557 -1.049,-2.637 -2.494,-2.637 -1.445,0 -2.494,1.08 -2.494,2.637 0,1.557 1.049,2.637 2.494,2.637 z" /><path
           style="fill:#127683"
           inkscape:connector-curvature="0"
           id="path57"
           d="m 192.337,169.148 v 4.448 c 0,2.001 -1.398,3.335 -3.257,3.335 -1.859,0 -3.256,-1.334 -3.256,-3.335 v -4.448 h 1.397 v 4.448 c 0,1.175 0.858,2.001 1.858,2.001 1.001,0 1.858,-0.826 1.858,-2.001 v -4.448 h 1.4 z" /><path
           style="fill:#127683"
           inkscape:connector-curvature="0"
           id="path59"
           d="m 193.687,180.204 v -7.021 c 0,-2.51 1.604,-4.193 3.844,-4.193 2.478,0 3.939,1.906 3.939,4.162 0,2.128 -1.716,3.78 -3.67,3.78 -0.762,0 -1.493,-0.159 -2.16,-0.54 v -1.461 c 0.509,0.35 1.287,0.667 1.922,0.667 1.51,0 2.51,-1.048 2.51,-2.621 0,-1.557 -1.048,-2.653 -2.541,-2.653 -1.334,0 -2.446,1.017 -2.446,3.113 v 6.767 h -1.398 z" /></g></g></g><g
     id="Layer_2"
     transform="translate(0,-239.45901)" /></svg>